# xmcd
#
# Track frame offsets:
#	150
#	13395
#	23707
#	35320
#	46930
#	60275
#	71892
#	80932
#	92277
#	101610
#	116770
#	128855
#	143040
#	153635
#	166195
#	177450
#	191450
#	202782
#	213132
#	224537
#	237767
#	252380
#	264397
#	277095
#	290562
#	299390
#	312322
#
# Disc length: 4307 seconds
#
# Revision: 4
# Processed by: cddbd v1.5.2PL0 Copyright (c) Steve Scherf et al.
# Submitted via: EZCDAudioConverter 7.2.1.1
#
DISCID=9210d11b
DTITLE=Merle Haggard - Untamed Hawk;Disc 3 of 5
DYEAR=1995
DGENRE=Country
TTITLE0=Mary's Mine (1966  ST 2702)
TTITLE1=If You Want To Be My Woman (1966  ST 2702)
TTITLE2=Someone Told My Heart (1966  ST 2702)
TTITLE3=Piedras Negras (Go Home) (Recorded 1966 - Released 1967  ST 2789)
TTITLE4=Whatever Happened To Me (1966  ST 2702)
TTITLE5=Loneliness Is Eating Me Alive (Recorded 1966 - Released 1967  ST 2789)
TTITLE6=Skid Row (1966  ST 2702)
TTITLE7=Drink Up And Be Somebody (1966  ST 2702)
TTITLE8=Gone Crazy (Recorded 1966 - Released 1967  ST 2789)
TTITLE9=I Threw Away The Rose (Recorded 1966 - Released 1967  ST 2789)
TTITLE10=Some Of Us Never Learn (1967  ST 2789)
TTITLE11=Branded Man (1967  ST 2789)
TTITLE12=You Don't Have Very Far To Go (1967  ST 2789)
TTITLE13=Wine Take Me Away (Recorded 1967 - Released 1968  ST 2848)
TTITLE14=If You See My Baby (Recorded 1967 - Released 1968  ST 2848)
TTITLE15=Somewhere Between (1967  ST 2789)
TTITLE16=Don't Get Married (1967  ST 2789)
TTITLE17=My Hands Are Tied (1967  ST 2789)
TTITLE18=I Made The Prison Band (1967  ST 2789)
TTITLE19=Look Over Me (Recorded 1967 - Released 1968  ST 2848)
TTITLE20=Long Black Limousine (1967  ST 2789)
TTITLE21=I'll Leave The Bottle On The Bar (Recorded 1967 - Released 1968  ST 2
TTITLE21=848)
TTITLE22=Sing Me Back Home (Recorded 1967 - Released 1968  ST 2848)
TTITLE23=The Son Of Hickory Holler's Tramp (Recorded 1967 - Released 1968  ST 
TTITLE23=2848)
TTITLE24=Seeing Eye Dog (Recorded 1967 - Released 1968  ST 2848)
TTITLE25=Will You Visit Me On Sundays (Recorded 1967 - Released 1968  ST 2912)
TTITLE26=Home Is Where A Kid Grows Up (Recorded 1967 - Released 1968  ST 2848)
EXTD=
EXTT0=
EXTT1=
EXTT2=
EXTT3=
EXTT4=
EXTT5=
EXTT6=
EXTT7=
EXTT8=
EXTT9=
EXTT10=
EXTT11=
EXTT12=
EXTT13=
EXTT14=
EXTT15=
EXTT16=
EXTT17=
EXTT18=
EXTT19=
EXTT20=
EXTT21=
EXTT22=
EXTT23=
EXTT24=
EXTT25=
EXTT26=
PLAYORDER=
